<svg id="svg" version="1.1" xmlns="http://www.w3.org/2000/svg" xmlns:xlink="http://www.w3.org/1999/xlink" width="400" height="400" viewBox="0, 0, 400,400"><g id="svgg"><path id="path0" d="M86.800 199.000 L 86.800 313.200 201.000 313.200 L 315.200 313.200 315.200 199.000 L 315.200 84.800 201.000 84.800 L 86.800 84.800 86.800 199.000 M287.200 199.000 L 287.200 284.800 201.200 284.800 L 115.200 284.800 115.200 199.000 L 115.200 113.200 201.200 113.200 L 287.200 113.200 287.200 199.000 " stroke="none" fill="#000000" fill-rule="evenodd"></path><path id="path1" d="" stroke="none" fill="#020202" fill-rule="evenodd"></path><path id="path2" d="" stroke="none" fill="#030303" fill-rule="evenodd"></path><path id="path3" d="" stroke="none" fill="#050505" fill-rule="evenodd"></path><path id="path4" d="" stroke="none" fill="#060606" fill-rule="evenodd"></path><path id="path5" d="" stroke="none" fill="#080808" fill-rule="evenodd"></path><path id="path6" d="" stroke="none" fill="#0b0b0b" fill-rule="evenodd"></path><path id="path7" d="" stroke="none" fill="#090909" fill-rule="evenodd"></path><path id="path8" d="" stroke="none" fill="#0c0c0c" fill-rule="evenodd"></path><path id="path9" d="M286.996 199.000 C 286.996 245.420,287.043 264.469,287.100 241.332 C 287.157 218.195,287.157 180.215,287.100 156.932 C 287.043 133.649,286.996 152.580,286.996 199.000 " stroke="none" fill="#0f0f0f" fill-rule="evenodd"></path><path id="path10" d="" stroke="none" fill="#111111" fill-rule="evenodd"></path><path id="path11" d="" stroke="none" fill="#141414" fill-rule="evenodd"></path><path id="path12" d="" stroke="none" fill="#171717" fill-rule="evenodd"></path><path id="path13" d="" stroke="none" fill="#1a1a1a" fill-rule="evenodd"></path><path id="path14" d="" stroke="none" fill="#1b1b1b" fill-rule="evenodd"></path><path id="path15" d="" stroke="none" fill="#1d1d1d" fill-rule="evenodd"></path><path id="path16" d="" stroke="none" fill="#232323" fill-rule="evenodd"></path><path id="path17" d="" stroke="none" fill="#262626" fill-rule="evenodd"></path><path id="path18" d="" stroke="none" fill="#272727" fill-rule="evenodd"></path><path id="path19" d="" stroke="none" fill="#292929" fill-rule="evenodd"></path><path id="path20" d="M315.299 198.899 L 315.200 313.199 200.900 313.300 L 86.600 313.401 200.913 313.501 C 292.068 313.580,315.264 313.499,315.415 313.100 C 315.519 312.825,315.558 261.300,315.502 198.600 L 315.399 84.600 315.299 198.899 M158.932 113.500 C 182.215 113.557,220.195 113.557,243.332 113.500 C 266.469 113.443,247.420 113.396,201.000 113.396 C 154.580 113.396,135.649 113.443,158.932 113.500 M115.396 199.000 C 115.396 245.420,115.443 264.469,115.500 241.332 C 115.557 218.195,115.557 180.215,115.500 156.932 C 115.443 133.649,115.396 152.580,115.396 199.000 " stroke="none" fill="#2f2f2f" fill-rule="evenodd"></path><path id="path21" d="" stroke="none" fill="#303030" fill-rule="evenodd"></path><path id="path22" d="" stroke="none" fill="#333333" fill-rule="evenodd"></path><path id="path23" d="" stroke="none" fill="#353535" fill-rule="evenodd"></path><path id="path24" d="" stroke="none" fill="#3b3b3b" fill-rule="evenodd"></path><path id="path25" d="" stroke="none" fill="#3e3e3e" fill-rule="evenodd"></path><path id="path26" d="M86.585 84.900 C 86.481 85.175,86.442 136.700,86.498 199.400 L 86.601 313.400 86.701 199.101 L 86.800 84.801 201.100 84.700 L 315.400 84.599 201.087 84.499 C 109.932 84.420,86.736 84.501,86.585 84.900 M286.596 199.000 C 286.596 245.420,286.643 264.469,286.700 241.332 C 286.757 218.195,286.757 180.215,286.700 156.932 C 286.643 133.649,286.596 152.580,286.596 199.000 M158.932 284.700 C 182.215 284.757,220.195 284.757,243.332 284.700 C 266.469 284.643,247.420 284.596,201.000 284.596 C 154.580 284.596,135.649 284.643,158.932 284.700 " stroke="none" fill="#3f3f3f" fill-rule="evenodd"></path><path id="path27" d="" stroke="none" fill="#454545" fill-rule="evenodd"></path><path id="path28" d="" stroke="none" fill="#474747" fill-rule="evenodd"></path><path id="path29" d="" stroke="none" fill="#4d4d4d" fill-rule="evenodd"></path><path id="path30" d="" stroke="none" fill="#505050" fill-rule="evenodd"></path><path id="path31" d="" stroke="none" fill="#535353" fill-rule="evenodd"></path><path id="path32" d="" stroke="none" fill="#565656" fill-rule="evenodd"></path><path id="path33" d="" stroke="none" fill="#595959" fill-rule="evenodd"></path><path id="path34" d="" stroke="none" fill="#5a5a5a" fill-rule="evenodd"></path><path id="path35" d="M315.797 199.000 C 315.797 261.920,315.843 287.600,315.900 256.068 C 315.956 224.535,315.956 173.055,315.900 141.668 C 315.843 110.280,315.797 136.080,315.797 199.000 M158.932 113.900 C 182.215 113.957,220.195 113.957,243.332 113.900 C 266.469 113.843,247.420 113.796,201.000 113.796 C 154.580 113.796,135.649 113.843,158.932 113.900 M115.796 199.000 C 115.796 245.420,115.843 264.469,115.900 241.332 C 115.957 218.195,115.957 180.215,115.900 156.932 C 115.843 133.649,115.796 152.580,115.796 199.000 M143.932 313.900 C 175.465 313.956,226.945 313.956,258.332 313.900 C 289.720 313.843,263.920 313.797,201.000 313.797 C 138.080 313.797,112.400 313.843,143.932 313.900 " stroke="none" fill="#5f5f5f" fill-rule="evenodd"></path><path id="path36" d="" stroke="none" fill="#636363" fill-rule="evenodd"></path><path id="path37" d="" stroke="none" fill="#6b6b6b" fill-rule="evenodd"></path><path id="path38" d="M86.480 84.480 C 86.108 84.852,86.022 110.765,86.099 199.180 L 86.198 313.400 86.399 199.000 L 86.600 84.600 201.000 84.399 L 315.400 84.198 201.180 84.099 C 112.765 84.022,86.852 84.108,86.480 84.480 M286.196 199.000 C 286.196 245.420,286.243 264.469,286.300 241.332 C 286.357 218.195,286.357 180.215,286.300 156.932 C 286.243 133.649,286.196 152.580,286.196 199.000 M158.932 284.300 C 182.215 284.357,220.195 284.357,243.332 284.300 C 266.469 284.243,247.420 284.196,201.000 284.196 C 154.580 284.196,135.649 284.243,158.932 284.300 " stroke="none" fill="#6f6f6f" fill-rule="evenodd"></path><path id="path39" d="" stroke="none" fill="#747474" fill-rule="evenodd"></path><path id="path40" d="" stroke="none" fill="#777777" fill-rule="evenodd"></path><path id="path41" d="" stroke="none" fill="#7d7d7d" fill-rule="evenodd"></path><path id="path42" d="" stroke="none" fill="#818181" fill-rule="evenodd"></path><path id="path43" d="" stroke="none" fill="#878787" fill-rule="evenodd"></path><path id="path44" d="" stroke="none" fill="#8a8a8a" fill-rule="evenodd"></path><path id="path45" d="M316.197 199.000 C 316.197 261.920,316.243 287.600,316.300 256.068 C 316.356 224.535,316.356 173.055,316.300 141.668 C 316.243 110.280,316.197 136.080,316.197 199.000 M116.480 114.480 C 116.109 114.851,116.022 134.099,116.099 199.180 L 116.197 283.400 116.399 199.000 L 116.600 114.600 201.000 114.399 L 285.400 114.197 201.180 114.099 C 136.099 114.022,116.851 114.109,116.480 114.480 M143.932 314.300 C 175.465 314.356,226.945 314.356,258.332 314.300 C 289.720 314.243,263.920 314.197,201.000 314.197 C 138.080 314.197,112.400 314.243,143.932 314.300 " stroke="none" fill="#8f8f8f" fill-rule="evenodd"></path><path id="path46" d="" stroke="none" fill="#939393" fill-rule="evenodd"></path><path id="path47" d="" stroke="none" fill="#9b9b9b" fill-rule="evenodd"></path><path id="path48" d="M143.932 83.900 C 175.465 83.956,226.945 83.956,258.332 83.900 C 289.720 83.843,263.920 83.797,201.000 83.797 C 138.080 83.797,112.400 83.843,143.932 83.900 M85.797 199.000 C 85.797 261.920,85.843 287.600,85.900 256.068 C 85.956 224.535,85.956 173.055,85.900 141.668 C 85.843 110.280,85.797 136.080,85.797 199.000 M285.796 199.000 C 285.796 245.420,285.843 264.469,285.900 241.332 C 285.957 218.195,285.957 180.215,285.900 156.932 C 285.843 133.649,285.796 152.580,285.796 199.000 M158.932 283.900 C 182.215 283.957,220.195 283.957,243.332 283.900 C 266.469 283.843,247.420 283.796,201.000 283.796 C 154.580 283.796,135.649 283.843,158.932 283.900 " stroke="none" fill="#9f9f9f" fill-rule="evenodd"></path><path id="path49" d="" stroke="none" fill="#a4a4a4" fill-rule="evenodd"></path><path id="path50" d="" stroke="none" fill="#a5a5a5" fill-rule="evenodd"></path><path id="path51" d="" stroke="none" fill="#a8a8a8" fill-rule="evenodd"></path><path id="path52" d="" stroke="none" fill="#ababab" fill-rule="evenodd"></path><path id="path53" d="" stroke="none" fill="#aeaeae" fill-rule="evenodd"></path><path id="path54" d="" stroke="none" fill="#b1b1b1" fill-rule="evenodd"></path><path id="path55" d="" stroke="none" fill="#b7b7b7" fill-rule="evenodd"></path><path id="path56" d="" stroke="none" fill="#b9b9b9" fill-rule="evenodd"></path><path id="path57" d="M316.597 199.000 C 316.597 261.920,316.643 287.600,316.700 256.068 C 316.756 224.535,316.756 173.055,316.700 141.668 C 316.643 110.280,316.597 136.080,316.597 199.000 M116.585 114.900 C 116.480 115.175,116.441 153.200,116.498 199.400 L 116.602 283.400 116.701 199.101 L 116.800 114.802 201.100 114.700 L 285.400 114.598 201.087 114.499 C 133.932 114.420,116.736 114.502,116.585 114.900 M143.932 314.700 C 175.465 314.756,226.945 314.756,258.332 314.700 C 289.720 314.643,263.920 314.597,201.000 314.597 C 138.080 314.597,112.400 314.643,143.932 314.700 " stroke="none" fill="#bfbfbf" fill-rule="evenodd"></path><path id="path58" d="" stroke="none" fill="#c0c0c0" fill-rule="evenodd"></path><path id="path59" d="" stroke="none" fill="#c3c3c3" fill-rule="evenodd"></path><path id="path60" d="" stroke="none" fill="#c9c9c9" fill-rule="evenodd"></path><path id="path61" d="" stroke="none" fill="#cbcbcb" fill-rule="evenodd"></path><path id="path62" d="M143.932 83.500 C 175.465 83.556,226.945 83.556,258.332 83.500 C 289.720 83.443,263.920 83.397,201.000 83.397 C 138.080 83.397,112.400 83.443,143.932 83.500 M85.397 199.000 C 85.397 261.920,85.443 287.600,85.500 256.068 C 85.556 224.535,85.556 173.055,85.500 141.668 C 85.443 110.280,85.397 136.080,85.397 199.000 M285.299 198.899 L 285.200 283.198 200.900 283.300 L 116.600 283.402 200.913 283.501 C 268.068 283.580,285.264 283.498,285.415 283.100 C 285.520 282.825,285.559 244.800,285.502 198.600 L 285.398 114.600 285.299 198.899 " stroke="none" fill="#cfcfcf" fill-rule="evenodd"></path><path id="path63" d="" stroke="none" fill="#cecece" fill-rule="evenodd"></path><path id="path64" d="" stroke="none" fill="#d5d5d5" fill-rule="evenodd"></path><path id="path65" d="" stroke="none" fill="#d7d7d7" fill-rule="evenodd"></path><path id="path66" d="" stroke="none" fill="#d8d8d8" fill-rule="evenodd"></path><path id="path67" d="" stroke="none" fill="#dbdbdb" fill-rule="evenodd"></path><path id="path68" d="" stroke="none" fill="#e1e1e1" fill-rule="evenodd"></path><path id="path69" d="" stroke="none" fill="#e3e3e3" fill-rule="evenodd"></path><path id="path70" d="" stroke="none" fill="#e4e4e4" fill-rule="evenodd"></path><path id="path71" d="" stroke="none" fill="#e7e7e7" fill-rule="evenodd"></path><path id="path72" d="" stroke="none" fill="#eaeaea" fill-rule="evenodd"></path><path id="path73" d="" stroke="none" fill="#ededed" fill-rule="evenodd"></path><path id="path74" d="" stroke="none" fill="#efefef" fill-rule="evenodd"></path><path id="path75" d="" stroke="none" fill="#f3f3f3" fill-rule="evenodd"></path><path id="path76" d="" stroke="none" fill="#f6f6f6" fill-rule="evenodd"></path><path id="path77" d="M0.000 200.000 L 0.000 400.000 200.000 400.000 L 400.000 400.000 400.000 200.000 L 400.000 0.000 200.000 0.000 L 0.000 0.000 0.000 200.000 M316.800 199.000 L 316.800 314.800 201.000 314.800 L 85.200 314.800 85.200 199.000 L 85.200 83.200 201.000 83.200 L 316.800 83.200 316.800 199.000 M116.800 199.000 L 116.800 283.200 201.000 283.200 L 285.200 283.200 285.200 199.000 L 285.200 114.800 201.000 114.800 L 116.800 114.800 116.800 199.000 " stroke="none" fill="#ffffff" fill-rule="evenodd"></path></g></svg>